<?xml version="1.0" standalone="no"?>
<!DOCTYPE svg PUBLIC "-//W3C//DTD SVG 20010904//EN"
 "http://www.w3.org/TR/2001/REC-SVG-20010904/DTD/svg10.dtd">
<svg version="1.0" xmlns="http://www.w3.org/2000/svg"
 width="456.000000pt" height="344.000000pt" viewBox="0 0 456.000000 344.000000"
 preserveAspectRatio="xMidYMid meet">
<metadata>
Created by potrace 1.16, written by Peter Selinger 2001-2019
</metadata>
<g transform="translate(0.000000,344.000000) scale(0.100000,-0.100000)"
fill="#000000" stroke="none">
<path d="M2275 3094 c-293 -44 -526 -141 -739 -309 -280 -220 -479 -548 -542
-892 l-17 -93 -53 0 c-96 0 -295 119 -434 259 -41 42 -88 101 -105 131 -28 51
-30 62 -30 161 0 100 1 107 28 142 30 40 80 70 167 99 l55 18 -84 -6 c-224
-16 -417 -116 -452 -235 -11 -33 -16 -39 -41 -39 -23 0 -28 -4 -28 -25 0 -21
5 -25 28 -25 24 0 30 -6 46 -52 74 -209 360 -514 684 -731 420 -280 922 -440
1254 -398 200 25 381 102 509 218 l36 32 -31 63 c-30 61 -31 66 -31 203 0 124
3 147 24 199 30 76 124 172 206 212 58 28 65 29 205 29 139 0 148 -1 208 -29
82 -38 181 -141 210 -218 42 -113 37 -296 -11 -400 -53 -116 -177 -211 -292
-224 -86 -9 -91 -12 -143 -83 -140 -188 -363 -340 -622 -424 -185 -61 -273
-72 -557 -72 -139 0 -249 -3 -245 -6 4 -4 40 -32 80 -62 149 -115 328 -201
517 -250 200 -52 342 -59 530 -27 470 80 868 378 1075 805 63 128 101 236 121
334 l12 61 49 0 c40 0 60 -7 102 -35 75 -49 152 -135 184 -202 24 -53 27 -69
27 -173 0 -97 -4 -122 -22 -162 -26 -58 -90 -123 -163 -166 l-55 -33 50 6
c271 33 459 178 497 382 36 192 -143 477 -422 674 -241 171 -474 269 -760 321
-151 27 -395 30 -527 5 -168 -31 -362 -104 -468 -176 -21 -15 -46 -21 -84 -21
-52 0 -55 2 -121 64 -37 35 -91 77 -119 92 l-51 29 0 56 c0 56 1 58 56 108
127 116 348 244 537 310 227 79 361 102 656 110 l243 6 -69 62 c-203 180 -436
300 -691 353 -93 20 -320 34 -387 24z"/>
<path d="M2889 1707 c-19 -12 -42 -38 -51 -56 -15 -30 -15 -37 -3 -61 18 -34
71 -80 93 -80 31 0 82 39 99 75 16 34 16 38 -2 71 -11 20 -35 44 -57 55 -45
23 -38 24 -79 -4z"/>
</g>
</svg>
